<svg width="275" height="81" viewBox="0 0 275 81" fill="none" xmlns="http://www.w3.org/2000/svg">
<path d="M152.589 30.0918L142.6 38.9975H142.577L122.102 14.0547H139.424L152.589 30.0918Z" fill="#81818C"/>
<path d="M180.889 63.7975H163.572L151.434 49.0222L146.622 43.147L151.383 38.8828H160.442L180.889 63.7975Z" fill="#FFC000"/>
<path d="M194.94 0L160.441 38.8845H160.419L151.433 49.0239L133.366 69.3702L104.604 80.6531L146.622 43.1487L151.382 38.8845L194.94 0Z" fill="#C55A11"/>
<path d="M160.447 38.875L151.434 49.0256L152.985 50.9127L160.447 38.875Z" fill="#CC9900"/>
<path d="M181.887 48.9342C181.041 48.6244 180.274 48.1738 179.602 47.5767C178.931 46.9796 178.395 46.2191 178.012 45.3066C177.622 44.3884 177.431 43.3688 177.431 42.2253C177.431 41.0818 177.639 39.9778 178.04 38.9639C178.446 37.9443 179.033 37.0655 179.783 36.3107C180.539 35.5559 181.43 34.9757 182.468 34.5589C183.5 34.142 184.606 33.9336 185.796 33.9336C186.45 33.9336 187.245 33.9956 188.187 34.1138C189.124 34.2321 189.942 34.3899 190.641 34.5701L190.669 39.4145L190.269 39.5046C190.286 39.0371 188.774 34.4744 185.271 34.4744C184.764 34.4744 184.284 34.7166 183.85 35.1897C183.41 35.6686 183.049 36.3727 182.778 37.2909C182.502 38.2147 182.366 39.268 182.366 40.4453C182.366 41.3015 182.451 42.1352 182.626 42.9464C182.801 43.7575 183.088 44.4785 183.483 45.0982C183.884 45.7178 184.38 46.2135 184.984 46.574C185.581 46.9402 186.286 47.1204 187.087 47.1204C187.697 47.1204 188.311 47.019 188.909 46.8106C189.507 46.6022 190.021 46.3036 190.421 45.8924L190.664 46.2304C189.829 47.2669 188.887 48.0499 187.849 48.5794C186.805 49.1089 185.694 49.368 184.51 49.368C183.613 49.368 182.733 49.2159 181.887 48.9117H181.881L181.887 48.9342Z" fill="white"/>
<path d="M265.329 40.6C265.284 41.5914 265.397 42.504 265.651 43.332C265.904 44.1601 266.282 44.8529 266.773 45.4219C267.264 45.9908 267.845 46.4245 268.516 46.7175C269.187 47.0104 269.915 47.1568 270.693 47.1568C271.393 47.1568 272.098 47.0442 272.825 46.8076C273.553 46.571 274.117 46.2556 274.529 45.85L274.805 46.1598C273.091 48.3341 270.879 49.4213 268.183 49.4213C267.123 49.4213 266.119 49.2579 265.177 48.9312C264.24 48.6045 263.423 48.1313 262.723 47.4948C262.029 46.8639 261.488 46.0922 261.099 45.1797C260.709 44.2615 260.518 43.2588 260.518 42.1604C260.518 41.062 260.726 39.9804 261.127 38.9721C261.533 37.9638 262.114 37.0851 262.858 36.3302C263.603 35.5754 264.5 34.9952 265.543 34.5784C266.587 34.1615 267.704 33.9531 268.911 33.9531C270.953 33.9531 272.532 34.539 273.649 35.705C274.766 36.8766 275.189 38.5046 274.924 40.6H265.329ZM266.17 36.043C265.69 37.0682 265.408 38.4144 265.329 40.0818C266.192 40.0987 270.028 40.155 270.597 40.0818C270.643 39.4509 270.597 38.2173 270.456 37.4287C270.321 36.6344 270.05 35.9528 269.627 35.3726C269.21 34.7924 268.702 34.5052 268.116 34.5052C267.298 34.5052 266.649 35.0178 266.17 36.0486V36.043Z" fill="white"/>
<path d="M253.489 34.2651C253.669 32.9188 255.728 30.1474 259.631 30.4854V33.6567C259.101 33.5103 255.006 32.8061 253.979 34.3834C255.203 34.7101 256.196 35.2565 256.952 36.0282C257.708 36.7999 258.086 37.735 258.086 38.8278C258.086 39.3967 257.967 39.9995 257.713 40.6247C257.471 41.2556 257.003 41.8753 256.32 42.5005C255.638 43.1201 254.78 43.5877 253.765 43.9031C252.744 44.2186 251.712 44.3707 250.668 44.3707L249.348 44.3087C249.038 44.4552 248.79 44.6467 248.598 44.8889C248.406 45.1311 248.305 45.3677 248.305 45.5874C248.305 46.2408 248.886 46.6351 250.048 46.7759L253.974 47.2942C254.583 47.373 255.288 47.5364 256.078 47.7843C256.867 48.0265 257.533 48.4151 258.08 48.9615C258.633 49.4967 258.909 50.1557 258.909 50.9275C258.909 51.5358 258.723 52.1723 258.339 52.8314C257.962 53.4961 257.381 54.1101 256.608 54.6903C255.835 55.2705 254.854 55.738 253.663 56.0929C252.479 56.4478 251.131 56.628 249.619 56.628C247.701 56.628 246.127 56.3633 244.915 55.8338C243.696 55.3043 243.093 54.634 243.093 53.8228C243.093 53.7777 243.093 53.7101 243.11 53.6144C243.121 53.513 243.183 53.344 243.29 53.0962C243.403 52.8539 243.668 52.5779 244.074 52.2681C244.48 51.9583 244.92 51.6935 245.394 51.4626C245.868 51.226 246.37 50.9951 246.906 50.7641C247.447 50.5275 247.803 50.3698 247.966 50.2966C247.233 50.1952 246.556 49.998 245.941 49.6995C245.332 49.4066 244.898 49.0686 244.655 48.6799C244.413 48.2969 244.289 47.9363 244.289 47.6153C244.289 47.0858 244.565 46.5732 245.118 46.0775C245.671 45.5761 246.844 44.9621 248.643 44.2355C247.453 44.0327 246.488 43.6496 245.727 43.092C244.971 42.5343 244.469 41.9203 244.215 41.2613C243.961 40.5966 243.832 40.0276 243.832 39.5376C243.832 38.7658 244.018 38.0448 244.401 37.3745C244.779 36.7042 245.31 36.124 245.992 35.6226C246.675 35.1213 247.487 34.7383 248.429 34.4679C249.365 34.1975 250.364 34.0567 251.401 34.0567C252.011 34.0567 252.71 34.1299 253.483 34.2651H253.477H253.489ZM254.194 51.502C253.686 51.1021 252.97 50.8711 252.05 50.7866L248.587 50.3867C248.181 50.6289 247.865 50.9725 247.656 51.4063C247.442 51.84 247.335 52.3019 247.335 52.792C247.335 53.6482 247.662 54.3974 248.316 55.0452C248.97 55.6986 249.878 56.0197 251.04 56.0197C251.571 56.0197 252.14 55.9126 252.755 55.6986C253.364 55.4902 253.889 55.124 254.318 54.6114C254.746 54.1045 254.961 53.5637 254.961 52.9948C254.961 52.3864 254.707 51.8794 254.199 51.4908L254.194 51.502ZM248.891 41.2782C249.117 42.0893 249.41 42.7258 249.783 43.1821C250.149 43.6384 250.584 43.8693 251.069 43.8693C251.396 43.8693 251.74 43.7341 252.112 43.4694C252.479 43.2046 252.789 42.7258 253.043 42.033C253.297 41.3401 253.426 40.5515 253.426 39.6502C253.426 38.7489 253.297 37.9265 253.043 37.0422C252.789 36.1578 252.462 35.5325 252.061 35.1495C251.661 34.7777 251.266 34.5805 250.883 34.5805C250.211 34.5805 249.653 34.9805 249.213 35.7691C248.779 36.5577 248.553 37.566 248.553 38.7884C248.553 39.6221 248.666 40.4445 248.891 41.2613V41.2725V41.2782Z" fill="white"/>
<path d="M198.036 37.163C199.097 36.0646 200.061 35.3098 200.919 34.8929C201.776 34.4761 202.594 34.2677 203.372 34.2677C203.818 34.2677 204.297 34.3465 204.794 34.4986C205.296 34.6507 205.77 34.9154 206.215 35.2929C206.661 35.6646 207.05 36.1885 207.377 36.8645C207.704 37.5348 207.868 38.3685 207.868 39.3655V49.3922H203.333V39.3937C203.333 38.6839 203.186 38.0868 202.904 37.608C202.622 37.1292 202.284 36.8138 201.911 36.6617C201.533 36.5096 201.189 36.4307 200.89 36.4307C199.954 36.4307 199.001 36.8645 198.042 37.7432V49.3866H193.507V34.0818C193.507 32.9214 193.49 31.7779 193.45 30.6513C193.394 29.0909 194.466 27.7165 195.994 27.3616L198.042 26.8828V37.1574H198.036V37.163Z" fill="white"/>
<path d="M231.79 37.7502V49.3936H227.255V40.6455C227.255 39.7612 227.243 38.9162 227.209 38.1163C227.147 36.4602 228.264 34.99 229.883 34.6013L231.79 34.207V37.1643C232.85 36.049 233.82 35.2829 234.695 34.883C235.575 34.4774 236.392 34.2746 237.148 34.2746C237.904 34.2746 238.671 34.4718 239.382 34.8717C240.098 35.2717 240.646 35.8744 241.035 36.6855C241.424 37.4967 241.616 38.3923 241.616 39.3668V49.3936H237.081V39.395C237.081 38.4599 236.844 37.7333 236.376 37.215C235.902 36.6968 235.321 36.4377 234.633 36.4377C233.713 36.4377 232.76 36.8714 231.784 37.7502H231.79Z" fill="white"/>
<path d="M224.801 47.0719C224.722 47.1113 224.61 47.1564 224.463 47.2127C224.316 47.2634 224.198 47.2916 224.091 47.2916C223.453 47.2916 223.137 46.7902 223.137 45.7988V38.5154C223.137 37.4789 222.895 36.6002 222.415 35.8735C221.936 35.1525 221.253 34.6512 220.362 34.3695C219.471 34.0879 218.506 33.9414 217.468 33.9414C216.369 33.9414 215.201 34.0822 213.971 34.3526C212.747 34.6286 211.619 35.0117 210.604 35.4961L210.593 39.6364H211.066C211.371 38.6675 213.328 34.4934 216.673 34.4934C217.226 34.4934 217.694 34.7807 218.083 35.3609C218.473 35.9411 218.664 36.6847 218.664 37.6028V40.5602C216.357 40.9432 214.586 41.4107 213.362 41.9459C212.138 42.481 211.281 43.0668 210.79 43.6977C210.299 44.3286 210.057 45.0271 210.057 45.7988C210.057 46.5706 210.271 47.2183 210.7 47.8098C211.128 48.4013 211.63 48.8125 212.211 49.0434C212.792 49.28 213.334 49.3927 213.825 49.3927C214.558 49.3927 215.319 49.1899 216.109 48.7843C216.899 48.3787 217.751 47.6859 218.664 46.7114C218.766 47.5451 219.054 48.1985 219.527 48.6773C220.001 49.1561 220.627 49.3927 221.428 49.3927C222.162 49.3927 222.844 49.2012 223.481 48.8125C224.119 48.4294 224.626 47.9563 225.016 47.4099L224.801 47.0719ZM218.67 46.0974C218.36 46.441 218.004 46.7226 217.581 46.9367C217.164 47.1451 216.786 47.2578 216.459 47.2578C215.923 47.2578 215.477 47.0156 215.105 46.5424C214.738 46.0636 214.552 45.4102 214.552 44.5765C214.552 43.54 214.891 42.7458 215.573 42.1937C216.256 41.6473 217.282 41.2699 218.653 41.0671V46.0974H218.664H218.67Z" fill="white"/>
<path d="M89.4309 26.4609H83.9143C82.1431 29.4295 78.8095 37.203 77.1004 42.5206L70.4782 26.4609H63.0664C63.2187 29.5253 63.2977 33.3501 63.2977 37.9241C63.2977 42.498 63.2187 46.3228 63.0664 49.3872H68.4927C68.3404 46.3454 68.2615 42.5431 68.2615 37.9917C68.2615 35.3948 68.284 33.0741 68.3348 31.0011L75.0472 49.3872H77.6983C78.1326 47.2354 82.0077 34.2626 84.1625 30.9223C84.2132 33.0177 84.2358 35.3498 84.2358 37.9241C84.2358 42.5037 84.1568 46.3228 84.0045 49.3872H89.4309C89.2786 46.3454 89.1996 42.5431 89.1996 37.9917C89.1996 33.4402 89.2786 29.4408 89.4309 26.4609Z" fill="white"/>
<path d="M93.1473 28.1729C93.6663 27.7053 94.2755 27.4688 94.9693 27.4688C95.6631 27.4688 96.261 27.7053 96.7574 28.1729C97.2594 28.6404 97.5076 29.1812 97.5076 29.7952C97.5076 30.4092 97.2425 30.9443 96.7122 31.4175C96.182 31.885 95.5672 32.1216 94.8734 32.1216C94.1796 32.1216 93.6155 31.885 93.1135 31.4175C92.6115 30.9499 92.3633 30.4092 92.3633 29.7952C92.3633 29.1812 92.6228 28.646 93.1417 28.1729H93.1473ZM92.6397 40.6725C92.6397 39.8106 92.6228 38.9488 92.5889 38.0757C92.5269 36.4139 93.6719 34.9494 95.2964 34.5776L97.1353 34.1607V49.3811H92.634V40.6725H92.6397Z" fill="white"/>
<path d="M104.434 37.7111V49.3883H99.9048V40.6177C99.9048 39.7334 99.8935 38.8828 99.8653 38.0773C99.8089 36.4155 100.915 34.9453 102.533 34.5566L104.44 34.168V37.1309C105.495 36.01 106.465 35.2439 107.345 34.8383C108.219 34.4327 109.037 34.2243 109.793 34.2243C110.549 34.2243 111.316 34.4215 112.027 34.8214C112.743 35.2213 113.29 35.8241 113.679 36.6408C114.069 37.4576 114.26 38.3533 114.26 39.3278V49.3827H109.731V39.3559C109.731 38.4209 109.494 37.6886 109.026 37.1704C108.558 36.6521 107.977 36.393 107.283 36.393C106.363 36.393 105.416 36.8324 104.434 37.7055V37.7111Z" fill="white"/>
<path d="M9.79297 27.9986C6.02504 27.9986 2.26933 27.9129 0 27.7539V33.3691H0.47709C0.605542 33.0143 1.87171 28.5246 7.24225 28.5246C7.32177 31.5157 7.36459 34.88 7.36459 38.6112C7.36459 42.3424 7.30343 45.7923 7.1811 49.3767H12.4109C12.2886 45.7862 12.2274 42.1956 12.2274 38.6112C12.2274 35.0268 12.2703 31.5157 12.3498 28.5246C17.7203 28.5246 18.9865 33.0143 19.1149 33.3691H19.5921V27.7539C17.3227 27.9191 13.567 27.9986 9.7991 27.9986H9.79297Z" fill="white"/>
<path d="M44.0149 40.8601C43.9721 41.8694 44.0822 42.793 44.3391 43.631C44.596 44.469 44.9753 45.1724 45.4707 45.7535C45.9662 46.3285 46.5534 46.7689 47.2324 47.0686C47.9113 47.3683 48.6453 47.5152 49.4283 47.5152C50.1317 47.5152 50.8474 47.3989 51.5814 47.1604C52.3154 46.9218 52.8843 46.5976 53.3002 46.1878L53.5816 46.4998C51.8505 48.7079 49.6179 49.8089 46.8959 49.8089C45.8255 49.8089 44.8101 49.6438 43.862 49.3135C42.9139 48.9832 42.0882 48.5 41.3847 47.8577C40.6813 47.2154 40.1369 46.4325 39.7454 45.5088C39.354 44.5791 39.1582 43.5576 39.1582 42.4443C39.1582 41.3311 39.3662 40.2301 39.776 39.2086C40.1858 38.1871 40.773 37.294 41.5254 36.5294C42.2778 35.7648 43.1831 35.1715 44.2351 34.7494C45.2872 34.3274 46.4188 34.1133 47.6361 34.1133C49.6974 34.1133 51.2939 34.7066 52.4194 35.8933C53.5449 37.0799 53.973 38.7376 53.7039 40.8601H44.0211H44.0149ZM44.8652 36.2358C44.3819 37.2757 44.0944 38.6458 44.0149 40.334C44.8835 40.3524 48.7616 40.4074 49.3365 40.334C49.3794 39.6918 49.3365 38.444 49.1958 37.6427C49.0613 36.8352 48.786 36.1441 48.3578 35.5568C47.9358 34.9696 47.422 34.676 46.8287 34.676C46.0029 34.676 45.3484 35.196 44.8652 36.2419V36.2358Z" fill="white"/>
<path d="M121.589 40.8601C121.546 41.8694 121.656 42.793 121.913 43.631C122.17 44.469 122.549 45.1724 123.045 45.7535C123.54 46.3285 124.128 46.7689 124.807 47.0686C125.486 47.3683 126.22 47.5152 127.003 47.5152C127.706 47.5152 128.422 47.3989 129.156 47.1604C129.89 46.9218 130.458 46.5976 130.874 46.1878L131.156 46.4998C129.425 48.7079 127.192 49.8089 124.47 49.8089C123.4 49.8089 122.384 49.6438 121.436 49.3135C120.488 48.9832 119.662 48.5 118.959 47.8577C118.256 47.2154 117.711 46.4325 117.32 45.5088C116.928 44.5791 116.732 43.5576 116.732 42.4443C116.732 41.3311 116.94 40.2301 117.35 39.2086C117.76 38.1871 118.347 37.294 119.1 36.5294C119.852 35.7648 120.757 35.1715 121.809 34.7494C122.861 34.3274 123.993 34.1133 125.21 34.1133C127.272 34.1133 128.868 34.7066 129.994 35.8933C131.119 37.0799 131.547 38.7376 131.278 40.8601H121.595H121.589ZM122.439 36.2358C121.956 37.2757 121.669 38.6458 121.589 40.334C122.458 40.3524 126.336 40.4074 126.911 40.334C126.954 39.6918 126.911 38.444 126.77 37.6427C126.635 36.8352 126.36 36.1441 125.932 35.5568C125.51 34.9696 124.996 34.676 124.403 34.676C123.577 34.676 122.923 35.196 122.439 36.2419V36.2358Z" fill="white"/>
<path d="M26.6578 36.9604C27.7282 35.8471 28.7008 35.0764 29.5694 34.6543C30.438 34.2323 31.2637 34.0182 32.0467 34.0182C32.4993 34.0182 32.9825 34.0977 33.4841 34.2506C33.9918 34.4035 34.4689 34.6727 34.9216 35.058C35.3742 35.4373 35.7657 35.9694 36.096 36.6545C36.4263 37.3335 36.5915 38.1837 36.5915 39.193V49.3713H32.01V39.2236C32.01 38.5018 31.8632 37.8962 31.5757 37.413C31.2882 36.9298 30.9518 36.6056 30.5725 36.4527C30.1933 36.2998 29.8446 36.2202 29.5388 36.2202C28.5907 36.2202 27.6304 36.6606 26.6639 37.5537V49.3713H22.0824V33.8347C22.0824 32.6541 22.0641 31.4981 22.0274 30.3542C21.9723 28.77 23.055 27.3754 24.5964 27.0145L26.6639 26.5312V36.9604H26.6578Z" fill="white"/>
</svg>
