<svg width="185" height="54" viewBox="0 0 185 54" fill="none" xmlns="http://www.w3.org/2000/svg">
<rect width="185" height="54" fill="#1E1E1E"/>
<g id="My Listing / New">
<path d="M-1887 -166C-1887 -167.105 -1886.1 -168 -1885 -168H3001C3002.1 -168 3003 -167.105 3003 -166V5204C3003 5205.1 3002.1 5206 3001 5206H-1885C-1886.1 5206 -1887 5205.1 -1887 5204V-166Z" fill="#303030"/>
<path d="M-1885 -167H3001V-169H-1885V-167ZM3002 -166V5204H3004V-166H3002ZM3001 5205H-1885V5207H3001V5205ZM-1886 5204V-166H-1888V5204H-1886ZM-1885 5205C-1885.55 5205 -1886 5204.55 -1886 5204H-1888C-1888 5205.66 -1886.66 5207 -1885 5207V5205ZM3002 5204C3002 5204.55 3001.55 5205 3001 5205V5207C3002.66 5207 3004 5205.66 3004 5204H3002ZM3001 -167C3001.55 -167 3002 -166.552 3002 -166H3004C3004 -167.657 3002.66 -169 3001 -169V-167ZM-1885 -169C-1886.66 -169 -1888 -167.657 -1888 -166H-1886C-1886 -166.552 -1885.55 -167 -1885 -167V-169Z" fill="white" fill-opacity="0.1"/>
<g id="My Listing Details" clip-path="url(#clip0_4248_4574)">
<rect width="1440" height="4998" transform="translate(-162 -8)" fill="white"/>
<g id="Frame 1">
<mask id="path-3-inside-1_4248_4574" fill="white">
<path d="M-162 -8H1278V62H-162V-8Z"/>
</mask>
<path d="M-162 -8H1278V62H-162V-8Z" fill="#22222B"/>
<path d="M1278 61H-162V63H1278V61Z" fill="#50505E" mask="url(#path-3-inside-1_4248_4574)"/>
<g id="Group 34808">
<g id="Group">
<path id="Vector" d="M102.164 20.1475L95.4752 26.1103H95.4601L81.751 9.41016H93.349L102.164 20.1475Z" fill="#81818C"/>
<path id="Vector_2" d="M121.111 42.7164H109.517L101.389 32.8238L98.168 28.8902L101.355 26.0352H107.421L121.111 42.7164Z" fill="#FFC000"/>
<path id="Vector_3" d="M130.519 0L107.421 26.0345H107.406L101.39 32.8232L89.2931 46.4457L70.0361 54L98.1682 28.8895L101.356 26.0345L130.519 0Z" fill="#C55A11"/>
<path id="Vector_4" d="M107.425 26.0273L101.39 32.8235L102.428 34.087L107.425 26.0273Z" fill="#CC9900"/>
</g>
<path id="Vector_5" d="M121.779 32.7661C121.213 32.5587 120.699 32.2569 120.25 31.8572C119.8 31.4574 119.442 30.9482 119.185 30.3373C118.924 29.7225 118.796 29.0399 118.796 28.2743C118.796 27.5087 118.936 26.7695 119.204 26.0906C119.476 25.4079 119.868 24.8196 120.371 24.3142C120.877 23.8088 121.474 23.4204 122.168 23.1413C122.86 22.8622 123.6 22.7227 124.397 22.7227C124.835 22.7227 125.367 22.7641 125.998 22.8433C126.625 22.9225 127.172 23.0281 127.641 23.1488L127.66 26.3923L127.391 26.4526C127.403 26.1396 126.391 23.0847 124.045 23.0847C123.705 23.0847 123.384 23.2469 123.094 23.5637C122.799 23.8843 122.557 24.3557 122.376 24.9705C122.191 25.589 122.1 26.2942 122.1 27.0825C122.1 27.6557 122.157 28.2139 122.274 28.757C122.391 29.3001 122.584 29.7829 122.848 30.1977C123.116 30.6126 123.449 30.9445 123.853 31.1858C124.253 31.431 124.725 31.5517 125.261 31.5517C125.669 31.5517 126.081 31.4838 126.481 31.3443C126.882 31.2047 127.225 31.0048 127.493 30.7295L127.656 30.9558C127.097 31.6497 126.466 32.174 125.771 32.5285C125.073 32.883 124.329 33.0565 123.536 33.0565C122.935 33.0565 122.346 32.9547 121.779 32.751H121.776L121.779 32.7661Z" fill="white"/>
<path id="Vector_6" d="M177.646 27.1847C177.616 27.8485 177.692 28.4595 177.862 29.0139C178.031 29.5683 178.285 30.0322 178.613 30.4131C178.942 30.794 179.331 31.0844 179.78 31.2805C180.229 31.4767 180.717 31.5747 181.238 31.5747C181.706 31.5747 182.178 31.4993 182.665 31.3409C183.153 31.1825 183.53 30.9713 183.806 30.6997L183.991 30.9072C182.843 32.363 181.362 33.0908 179.557 33.0908C178.847 33.0908 178.175 32.9815 177.544 32.7627C176.917 32.544 176.37 32.2272 175.901 31.801C175.437 31.3786 175.074 30.8619 174.814 30.2509C174.553 29.6362 174.425 28.9649 174.425 28.2294C174.425 27.494 174.565 26.7699 174.833 26.0948C175.105 25.4197 175.494 24.8313 175.992 24.3259C176.491 23.8206 177.091 23.4321 177.79 23.153C178.488 22.8739 179.236 22.7344 180.044 22.7344C181.412 22.7344 182.469 23.1266 183.217 23.9073C183.965 24.6918 184.248 25.7817 184.07 27.1847H177.646ZM178.209 24.1336C177.888 24.82 177.699 25.7214 177.646 26.8377C178.224 26.8491 180.792 26.8868 181.174 26.8377C181.204 26.4153 181.174 25.5894 181.079 25.0614C180.989 24.5296 180.807 24.0732 180.524 23.6848C180.245 23.2963 179.905 23.104 179.512 23.104C178.964 23.104 178.53 23.4472 178.209 24.1374V24.1336Z" fill="white"/>
<path id="Vector_7" d="M169.72 22.9442C169.841 22.0428 171.219 20.1872 173.833 20.4135V22.5368C173.478 22.4388 170.736 21.9673 170.049 23.0234C170.868 23.2421 171.533 23.6079 172.039 24.1246C172.545 24.6413 172.798 25.2674 172.798 25.9991C172.798 26.38 172.719 26.7835 172.549 27.2022C172.386 27.6246 172.073 28.0394 171.616 28.4581C171.159 28.8729 170.585 29.186 169.905 29.3972C169.222 29.6084 168.53 29.7102 167.832 29.7102L166.948 29.6687C166.74 29.7668 166.574 29.895 166.446 30.0572C166.317 30.2193 166.249 30.3777 166.249 30.5248C166.249 30.9623 166.638 31.2263 167.416 31.3206L170.045 31.6676C170.453 31.7204 170.925 31.8298 171.454 31.9957C171.982 32.1579 172.428 32.4181 172.794 32.7839C173.164 33.1422 173.349 33.5835 173.349 34.1002C173.349 34.5075 173.225 34.9337 172.968 35.3749C172.715 35.82 172.326 36.2311 171.809 36.6195C171.291 37.008 170.634 37.321 169.837 37.5586C169.044 37.7962 168.141 37.9169 167.129 37.9169C165.845 37.9169 164.792 37.7397 163.98 37.3851C163.164 37.0306 162.76 36.5818 162.76 36.0387C162.76 36.0086 162.76 35.9633 162.771 35.8992C162.779 35.8313 162.82 35.7181 162.892 35.5522C162.967 35.39 163.145 35.2052 163.417 34.9978C163.689 34.7904 163.983 34.6131 164.301 34.4585C164.618 34.3001 164.954 34.1454 165.313 33.9908C165.675 33.8324 165.913 33.7268 166.023 33.6778C165.532 33.6099 165.079 33.4779 164.667 33.278C164.259 33.0819 163.968 32.8556 163.806 32.5954C163.644 32.3389 163.56 32.0975 163.56 31.8826C163.56 31.528 163.745 31.1848 164.116 30.8529C164.486 30.5173 165.271 30.1062 166.476 29.6197C165.679 29.4839 165.033 29.2274 164.523 28.8541C164.017 28.4807 163.681 28.0696 163.511 27.6283C163.341 27.1833 163.255 26.8024 163.255 26.4743C163.255 25.9576 163.379 25.4748 163.636 25.026C163.889 24.5772 164.244 24.1887 164.701 23.8531C165.158 23.5174 165.702 23.261 166.332 23.0799C166.959 22.8989 167.628 22.8046 168.323 22.8046C168.731 22.8046 169.199 22.8536 169.716 22.9442H169.713H169.72ZM170.192 34.4849C169.852 34.2171 169.373 34.0625 168.757 34.0059L166.438 33.7381C166.166 33.9003 165.955 34.1304 165.815 34.4208C165.672 34.7112 165.6 35.0204 165.6 35.3485C165.6 35.9218 165.819 36.4234 166.257 36.8571C166.695 37.2946 167.303 37.5096 168.081 37.5096C168.436 37.5096 168.817 37.4379 169.229 37.2946C169.637 37.1551 169.988 36.9099 170.275 36.5667C170.562 36.2273 170.706 35.8652 170.706 35.4843C170.706 35.077 170.536 34.7376 170.196 34.4773L170.192 34.4849ZM166.642 27.6396C166.793 28.1827 166.99 28.6089 167.239 28.9144C167.484 29.2199 167.775 29.3745 168.1 29.3745C168.319 29.3745 168.549 29.284 168.799 29.1068C169.044 28.9295 169.252 28.6089 169.422 28.145C169.592 27.6811 169.679 27.1531 169.679 26.5497C169.679 25.9463 169.592 25.3956 169.422 24.8035C169.252 24.2114 169.033 23.7927 168.765 23.5363C168.496 23.2874 168.232 23.1554 167.975 23.1554C167.526 23.1554 167.152 23.4231 166.857 23.9511C166.567 24.4791 166.416 25.1542 166.416 25.9727C166.416 26.5308 166.491 27.0815 166.642 27.6283V27.6359V27.6396Z" fill="white"/>
<path id="Vector_8" d="M132.592 24.8829C133.302 24.1475 133.948 23.6421 134.522 23.363C135.096 23.084 135.644 22.9444 136.165 22.9444C136.463 22.9444 136.784 22.9972 137.117 23.099C137.453 23.2009 137.77 23.3781 138.068 23.6308C138.367 23.8797 138.627 24.2305 138.846 24.6831C139.065 25.1319 139.175 25.69 139.175 26.3576V33.0708H136.139V26.3764C136.139 25.9012 136.04 25.5015 135.852 25.1809C135.663 24.8603 135.436 24.6491 135.187 24.5473C134.934 24.4455 134.703 24.3927 134.503 24.3927C133.876 24.3927 133.238 24.6831 132.596 25.2714V33.067H129.56V22.8199C129.56 22.043 129.548 21.2774 129.522 20.5231C129.484 19.4784 130.202 18.5582 131.225 18.3206L132.596 18V24.8792H132.592V24.8829Z" fill="white"/>
<path id="Vector_9" d="M155.191 25.2746V33.0702H152.155V27.2131C152.155 26.621 152.147 26.0553 152.125 25.5197C152.083 24.4109 152.831 23.4266 153.915 23.1663L155.191 22.9023V24.8824C155.901 24.1356 156.551 23.6227 157.136 23.3549C157.725 23.0834 158.273 22.9476 158.779 22.9476C159.285 22.9476 159.799 23.0796 160.275 23.3474C160.754 23.6152 161.121 24.0187 161.381 24.5618C161.642 25.1049 161.77 25.7046 161.77 26.357V33.0702H158.734V26.3759C158.734 25.7498 158.575 25.2633 158.262 24.9163C157.944 24.5693 157.555 24.3958 157.095 24.3958C156.479 24.3958 155.841 24.6863 155.188 25.2746H155.191Z" fill="white"/>
<path id="Vector_10" d="M150.512 31.5179C150.459 31.5443 150.383 31.5744 150.285 31.6122C150.187 31.6461 150.108 31.665 150.036 31.665C149.609 31.665 149.398 31.3293 149.398 30.6655V25.789C149.398 25.095 149.235 24.5067 148.914 24.0202C148.593 23.5374 148.136 23.2018 147.54 23.0132C146.943 22.8246 146.297 22.7266 145.602 22.7266C144.866 22.7266 144.084 22.8208 143.261 23.0019C142.441 23.1867 141.686 23.4431 141.006 23.7675L140.998 26.5395H141.316C141.52 25.8908 142.83 23.0962 145.07 23.0962C145.44 23.0962 145.753 23.2885 146.014 23.677C146.274 24.0654 146.403 24.5633 146.403 25.178V27.158C144.858 27.4145 143.672 27.7275 142.853 28.0858C142.033 28.4441 141.459 28.8364 141.131 29.2588C140.802 29.6812 140.64 30.1488 140.64 30.6655C140.64 31.1822 140.783 31.6159 141.07 32.0119C141.357 32.4079 141.693 32.6833 142.082 32.8379C142.471 32.9963 142.834 33.0717 143.162 33.0717C143.653 33.0717 144.163 32.936 144.692 32.6644C145.221 32.3929 145.791 31.929 146.403 31.2765C146.471 31.8347 146.663 32.2722 146.981 32.5927C147.298 32.9133 147.717 33.0717 148.253 33.0717C148.744 33.0717 149.201 32.9435 149.628 32.6833C150.055 32.4268 150.395 32.11 150.655 31.7442L150.512 31.5179ZM146.407 30.8654C146.199 31.0955 145.961 31.284 145.678 31.4274C145.398 31.5669 145.145 31.6423 144.926 31.6423C144.567 31.6423 144.269 31.4802 144.02 31.1634C143.774 30.8428 143.65 30.4053 143.65 29.8471C143.65 29.1532 143.876 28.6214 144.333 28.2518C144.79 27.8859 145.478 27.6333 146.395 27.4975V30.8654H146.403H146.407Z" fill="white"/>
<path id="Vector_11" d="M59.8765 17.7148H56.183C54.9971 19.7024 52.7651 24.907 51.6208 28.4673L47.1871 17.7148H42.2246C42.3266 19.7665 42.3795 22.3274 42.3795 25.3898C42.3795 28.4522 42.3266 31.0131 42.2246 33.0648H45.8577C45.7557 31.0282 45.7029 28.4824 45.7029 25.4351C45.7029 23.6964 45.718 22.1426 45.752 20.7547L50.2461 33.0648H52.0212C52.312 31.624 54.9065 22.9383 56.3492 20.7019C56.3831 22.1048 56.3983 23.6662 56.3983 25.3898C56.3983 28.456 56.3454 31.0131 56.2434 33.0648H59.8765C59.7745 31.0282 59.7217 28.4824 59.7217 25.4351C59.7217 22.3877 59.7745 19.71 59.8765 17.7148Z" fill="white"/>
<path id="Vector_12" d="M62.3658 18.8621C62.7132 18.549 63.1211 18.3906 63.5856 18.3906C64.0501 18.3906 64.4505 18.549 64.7828 18.8621C65.1189 19.1751 65.2851 19.5372 65.2851 19.9482C65.2851 20.3593 65.1076 20.7176 64.7526 21.0344C64.3976 21.3475 63.9859 21.5059 63.5214 21.5059C63.0569 21.5059 62.6792 21.3475 62.3431 21.0344C62.007 20.7214 61.8408 20.3593 61.8408 19.9482C61.8408 19.5372 62.0145 19.1789 62.362 18.8621H62.3658ZM62.0259 27.231C62.0259 26.6539 62.0145 26.0769 61.9919 25.4923C61.9503 24.3797 62.717 23.3991 63.8047 23.1502L65.0358 22.8711V33.0617H62.0221V27.231H62.0259Z" fill="white"/>
<path id="Vector_13" d="M69.9227 25.2473V33.0655H66.8901V27.1933C66.8901 26.6012 66.8826 26.0317 66.8637 25.4924C66.8259 24.3798 67.5661 23.3955 68.65 23.1352L69.9265 22.875V24.8588C70.6327 24.1083 71.2823 23.5954 71.8715 23.3238C72.4569 23.0523 73.0045 22.9127 73.5105 22.9127C74.0166 22.9127 74.5302 23.0447 75.0061 23.3125C75.4857 23.5803 75.852 23.9838 76.1126 24.5307C76.3732 25.0775 76.5016 25.6772 76.5016 26.3297V33.0618H73.469V26.3485C73.469 25.7225 73.3104 25.2322 72.9969 24.8852C72.6835 24.5382 72.2945 24.3647 71.8299 24.3647C71.2143 24.3647 70.5799 24.6589 69.9227 25.2435V25.2473Z" fill="white"/>
<path id="Vector_14" d="M6.55673 18.7458C4.03397 18.7458 1.51939 18.6885 0 18.582V22.3416H0.319428C0.405431 22.1041 1.25318 19.0981 4.84893 19.0981C4.90217 21.1007 4.93085 23.3532 4.93085 25.8514C4.93085 28.3496 4.8899 30.6594 4.80799 33.0593H8.30955C8.22764 30.6553 8.18669 28.2513 8.18669 25.8514C8.18669 23.4515 8.21537 21.1007 8.26861 19.0981C11.8644 19.0981 12.7121 22.1041 12.7981 22.3416H13.1176V18.582C11.5982 18.6926 9.0836 18.7458 6.56083 18.7458H6.55673Z" fill="white"/>
<path id="Vector_15" d="M29.4695 27.3571C29.4409 28.0328 29.5146 28.6512 29.6866 29.2123C29.8586 29.7733 30.1125 30.2443 30.4442 30.6334C30.776 31.0183 31.1691 31.3132 31.6237 31.5139C32.0783 31.7146 32.5697 31.8129 33.0939 31.8129C33.5649 31.8129 34.0441 31.735 34.5355 31.5753C35.027 31.4156 35.4079 31.1985 35.6863 30.9242L35.8747 31.133C34.7157 32.6115 33.2209 33.3486 31.3985 33.3486C30.6818 33.3486 30.0019 33.2381 29.3671 33.0169C28.7323 32.7958 28.1795 32.4722 27.7085 32.0422C27.2375 31.6122 26.873 31.088 26.6109 30.4696C26.3488 29.8471 26.2178 29.1631 26.2178 28.4178C26.2178 27.6724 26.357 26.9352 26.6314 26.2513C26.9058 25.5674 27.299 24.9694 27.8027 24.4575C28.3064 23.9456 28.9126 23.5483 29.617 23.2658C30.3214 22.9832 31.079 22.8398 31.894 22.8398C33.2741 22.8398 34.343 23.2371 35.0966 24.0316C35.8502 24.8261 36.1368 25.936 35.9566 27.3571H29.4736H29.4695ZM30.0388 24.2609C29.7152 24.9572 29.5228 25.8745 29.4695 27.0049C30.0511 27.0171 32.6476 27.054 33.0325 27.0049C33.0612 26.5748 33.0325 25.7394 32.9383 25.2029C32.8482 24.6623 32.6639 24.1995 32.3773 23.8064C32.0947 23.4132 31.7507 23.2166 31.3534 23.2166C30.8005 23.2166 30.3623 23.5647 30.0388 24.265V24.2609Z" fill="white"/>
<path id="Vector_16" d="M81.408 27.3571C81.3793 28.0328 81.453 28.6512 81.6251 29.2123C81.7971 29.7733 82.051 30.2443 82.3827 30.6334C82.7144 31.0183 83.1076 31.3132 83.5622 31.5139C84.0168 31.7146 84.5082 31.8129 85.0324 31.8129C85.5034 31.8129 85.9826 31.735 86.474 31.5753C86.9654 31.4156 87.3463 31.1985 87.6248 30.9242L87.8132 31.133C86.6542 32.6115 85.1594 33.3486 83.3369 33.3486C82.6202 33.3486 81.9404 33.2381 81.3056 33.0169C80.6708 32.7958 80.118 32.4722 79.647 32.0422C79.176 31.6122 78.8115 31.088 78.5494 30.4696C78.2873 29.8471 78.1562 29.1631 78.1562 28.4178C78.1562 27.6724 78.2955 26.9352 78.5699 26.2513C78.8443 25.5674 79.2374 24.9694 79.7412 24.4575C80.2449 23.9456 80.851 23.5483 81.5554 23.2658C82.2598 22.9832 83.0175 22.8398 83.8325 22.8398C85.2126 22.8398 86.2815 23.2371 87.0351 24.0316C87.7886 24.8261 88.0753 25.936 87.8951 27.3571H81.4121H81.408ZM81.9773 24.2609C81.6537 24.9572 81.4612 25.8745 81.408 27.0049C81.9895 27.0171 84.586 27.054 84.971 27.0049C84.9997 26.5748 84.971 25.7394 84.8768 25.2029C84.7867 24.6623 84.6024 24.1995 84.3157 23.8064C84.0331 23.4132 83.6891 23.2166 83.2919 23.2166C82.739 23.2166 82.3008 23.5647 81.9773 24.265V24.2609Z" fill="white"/>
<path id="Vector_17" d="M17.8486 24.7483C18.5653 24.0029 19.2165 23.4869 19.798 23.2043C20.3796 22.9217 20.9325 22.7784 21.4567 22.7784C21.7597 22.7784 22.0833 22.8316 22.4191 22.934C22.759 23.0364 23.0784 23.2166 23.3815 23.4746C23.6846 23.7285 23.9467 24.0848 24.1678 24.5435C24.389 24.9981 24.4996 25.5674 24.4996 26.2431V33.0578H21.4321V26.2636C21.4321 25.7803 21.3338 25.3749 21.1413 25.0513C20.9488 24.7278 20.7236 24.5107 20.4697 24.4084C20.2158 24.306 19.9823 24.2527 19.7776 24.2527C19.1428 24.2527 18.4998 24.5476 17.8527 25.1455V33.0578H14.7853V22.6555C14.7853 21.8651 14.773 21.0911 14.7484 20.3252C14.7116 19.2645 15.4364 18.3308 16.4685 18.0892L17.8527 17.7656V24.7483H17.8486Z" fill="white"/>
</g>
</g>
</g>
</g>
<defs>
<clipPath id="clip0_4248_4574">
<rect width="1440" height="4998" fill="white" transform="translate(-162 -8)"/>
</clipPath>
</defs>
</svg>
